<svg width="76" height="76" viewBox="0 0 76 76" fill="none" xmlns="http://www.w3.org/2000/svg">
<path d="M60.1667 6.33334H28.5C25.0072 6.33334 22.1667 9.17384 22.1667 12.6667V30.3557L7.26117 45.2612C6.81844 45.704 6.51695 46.2682 6.39482 46.8824C6.27269 47.4966 6.3354 48.1332 6.57502 48.7117C6.81464 49.2903 7.22042 49.7848 7.74105 50.1328C8.26168 50.4807 8.87379 50.6665 9.5 50.6667V66.5C9.5 67.3399 9.83363 68.1453 10.4275 68.7392C11.0214 69.333 11.8268 69.6667 12.6667 69.6667H63.3333C64.1732 69.6667 64.9786 69.333 65.5725 68.7392C66.1664 68.1453 66.5 67.3399 66.5 66.5V12.6667C66.5 9.17384 63.6595 6.33334 60.1667 6.33334ZM34.8333 63.3333H15.8333V45.6443L25.3333 36.1443L34.8333 45.6443V63.3333ZM60.1667 63.3333H41.1667V50.6667C41.7936 50.6681 42.4067 50.4832 42.9283 50.1354C43.45 49.7877 43.8565 49.2929 44.0964 48.7137C44.3363 48.1345 44.3987 47.4971 44.2757 46.8824C44.1526 46.2677 43.8498 45.7034 43.4055 45.2612L28.5 30.3557V12.6667H60.1667V63.3333Z" fill="#3F3D56"/>
<path d="M34.8333 19H41.1667V25.3333H34.8333V19ZM47.5 19H53.8333V25.3333H47.5V19ZM47.5 31.7648H53.8333V38H47.5V31.7648ZM47.5 44.3333H53.8333V50.6667H47.5V44.3333ZM22.1667 47.5H28.5V53.8333H22.1667V47.5Z" fill="#3F3D56"/>
</svg>
