<svg width="30" height="30" viewBox="0 0 30 30" fill="none" xmlns="http://www.w3.org/2000/svg">
<path d="M15 11.25C15.9946 11.25 16.9484 10.8549 17.6516 10.1517C18.3549 9.44839 18.75 8.49456 18.75 7.5C18.75 6.50544 18.3549 5.55161 17.6516 4.84835C16.9484 4.14509 15.9946 3.75 15 3.75C14.0054 3.75 13.0516 4.14509 12.3483 4.84835C11.6451 5.55161 11.25 6.50544 11.25 7.5C11.25 8.49456 11.6451 9.44839 12.3483 10.1517C13.0516 10.8549 14.0054 11.25 15 11.25ZM15 9.375C14.5027 9.375 14.0258 9.17746 13.6742 8.82582C13.3225 8.47419 13.125 7.99728 13.125 7.5C13.125 7.00272 13.3225 6.52581 13.6742 6.17417C14.0258 5.82254 14.5027 5.625 15 5.625C15.4973 5.625 15.9742 5.82254 16.3258 6.17417C16.6775 6.52581 16.875 7.00272 16.875 7.5C16.875 7.99728 16.6775 8.47419 16.3258 8.82582C15.9742 9.17746 15.4973 9.375 15 9.375ZM6.5625 11.25C7.30842 11.25 8.02379 10.9537 8.55124 10.4262C9.07868 9.89879 9.375 9.18342 9.375 8.4375C9.375 7.69158 9.07868 6.97621 8.55124 6.44876C8.02379 5.92132 7.30842 5.625 6.5625 5.625C5.81658 5.625 5.10121 5.92132 4.57376 6.44876C4.04632 6.97621 3.75 7.69158 3.75 8.4375C3.75 9.18342 4.04632 9.89879 4.57376 10.4262C5.10121 10.9537 5.81658 11.25 6.5625 11.25ZM6.5625 9.375C6.31386 9.375 6.0754 9.27623 5.89959 9.10041C5.72377 8.9246 5.625 8.68614 5.625 8.4375C5.625 8.18886 5.72377 7.9504 5.89959 7.77459C6.0754 7.59877 6.31386 7.5 6.5625 7.5C6.81114 7.5 7.0496 7.59877 7.22541 7.77459C7.40123 7.9504 7.5 8.18886 7.5 8.4375C7.5 8.68614 7.40123 8.9246 7.22541 9.10041C7.0496 9.27623 6.81114 9.375 6.5625 9.375ZM26.25 8.4375C26.25 8.80684 26.1773 9.17257 26.0359 9.5138C25.8946 9.85503 25.6874 10.1651 25.4262 10.4262C25.1651 10.6874 24.855 10.8946 24.5138 11.0359C24.1726 11.1773 23.8068 11.25 23.4375 11.25C23.0682 11.25 22.7024 11.1773 22.3612 11.0359C22.02 10.8946 21.7099 10.6874 21.4488 10.4262C21.1876 10.1651 20.9804 9.85503 20.8391 9.5138C20.6977 9.17257 20.625 8.80684 20.625 8.4375C20.625 7.69158 20.9213 6.97621 21.4488 6.44876C21.9762 5.92132 22.6916 5.625 23.4375 5.625C24.1834 5.625 24.8988 5.92132 25.4262 6.44876C25.9537 6.97621 26.25 7.69158 26.25 8.4375ZM24.375 8.4375C24.375 8.18886 24.2762 7.9504 24.1004 7.77459C23.9246 7.59877 23.6861 7.5 23.4375 7.5C23.1889 7.5 22.9504 7.59877 22.7746 7.77459C22.5988 7.9504 22.5 8.18886 22.5 8.4375C22.5 8.68614 22.5988 8.9246 22.7746 9.10041C22.9504 9.27623 23.1889 9.375 23.4375 9.375C23.6861 9.375 23.9246 9.27623 24.1004 9.10041C24.2762 8.9246 24.375 8.68614 24.375 8.4375ZM10.2863 13.3612C10.5487 13.2113 10.8534 13.125 11.1778 13.125H18.8222C19.1813 13.1243 19.5324 13.2315 19.83 13.4325C20.31 13.7569 20.625 14.3053 20.625 14.9278V20.625C20.625 22.1168 20.0324 23.5476 18.9775 24.6025C17.9226 25.6574 16.4918 26.25 15 26.25C13.5082 26.25 12.0774 25.6574 11.0225 24.6025C9.96763 23.5476 9.375 22.1168 9.375 20.625V14.9278C9.375 14.2566 9.74156 13.6716 10.2863 13.3612ZM11.25 20.625C11.25 21.6196 11.6451 22.5734 12.3483 23.2766C13.0516 23.9799 14.0054 24.375 15 24.375C15.9946 24.375 16.9484 23.9799 17.6516 23.2766C18.3549 22.5734 18.75 21.6196 18.75 20.625V15H11.25V20.625ZM7.96875 14.9278C7.96875 14.2594 8.17313 13.6388 8.52188 13.125H3.75C3.25272 13.125 2.77581 13.3225 2.42417 13.6742C2.07254 14.0258 1.875 14.5027 1.875 15V19.6875C1.87476 20.4948 2.08299 21.2884 2.47954 21.9915C2.87608 22.6947 3.44749 23.2835 4.13841 23.7009C4.82934 24.1184 5.61636 24.3504 6.42326 24.3743C7.23015 24.3983 8.02956 24.2135 8.74406 23.8378C8.45125 23.2691 8.238 22.6628 8.11031 22.0359C7.68631 22.3154 7.19455 22.4749 6.68722 22.4974C6.1799 22.5199 5.67594 22.4046 5.22884 22.1638C4.78174 21.923 4.40818 21.5657 4.14781 21.1297C3.88744 20.6937 3.74997 20.1953 3.75 19.6875V15H7.96875V14.9278ZM23.4375 24.375C22.65 24.375 21.9075 24.1809 21.2559 23.8378C21.5487 23.2691 21.762 22.6628 21.8897 22.0359C22.3137 22.3154 22.8055 22.4749 23.3128 22.4974C23.8201 22.5199 24.3241 22.4046 24.7712 22.1638C25.2183 21.923 25.5918 21.5657 25.8522 21.1297C26.1126 20.6937 26.25 20.1953 26.25 19.6875V15H22.0312V14.9278C22.0312 14.2594 21.8269 13.6388 21.4781 13.125H26.25C26.7473 13.125 27.2242 13.3225 27.5758 13.6742C27.9275 14.0258 28.125 14.5027 28.125 15V19.6875C28.125 20.9307 27.6311 22.123 26.7521 23.0021C25.873 23.8811 24.6807 24.375 23.4375 24.375Z" fill="black"/>
</svg>
