<svg width="25" height="25" viewBox="0 0 25 25" fill="none" xmlns="http://www.w3.org/2000/svg">
<path d="M4.16669 4.16667V20.8333C4.16669 21.3859 4.38618 21.9158 4.77688 22.3065C5.16758 22.6972 5.69749 22.9167 6.25002 22.9167H18.75C19.3026 22.9167 19.8325 22.6972 20.2232 22.3065C20.6139 21.9158 20.8334 21.3859 20.8334 20.8333V8.68959C20.8333 8.41204 20.7778 8.13731 20.6701 7.88151C20.5625 7.62571 20.4047 7.394 20.2063 7.2L15.5813 2.67709C15.1921 2.29652 14.6694 2.0834 14.125 2.08334H6.25002C5.69749 2.08334 5.16758 2.30283 4.77688 2.69353C4.38618 3.08423 4.16669 3.61413 4.16669 4.16667V4.16667Z" stroke="black" stroke-width="2" stroke-linecap="round" stroke-linejoin="round"/>
<path d="M9.375 13.5417H15.625" stroke="black" stroke-width="2" stroke-linecap="round" stroke-linejoin="round"/>
<path d="M9.375 17.7083H12.5" stroke="black" stroke-width="2" stroke-linecap="round" stroke-linejoin="round"/>
<path d="M14.5834 2.08334V6.25C14.5834 6.80254 14.8029 7.33244 15.1936 7.72314C15.5843 8.11384 16.1142 8.33334 16.6667 8.33334H20.8334" stroke="black" stroke-width="2" stroke-linejoin="round"/>
</svg>
