<svg width="21" height="22" viewBox="0 0 21 22" fill="none" xmlns="http://www.w3.org/2000/svg">
<path d="M19.9098 18.7778V7.66667C19.9098 7.0773 19.7112 6.51207 19.3577 6.09532C19.0041 5.67857 18.5246 5.44444 18.0246 5.44444H11.6487C11.2985 5.44443 10.9553 5.32945 10.6574 5.1124C10.3595 4.89534 10.1189 4.58479 9.96233 4.21556L9.11963 2.22889C8.96303 1.85948 8.7222 1.54882 8.42416 1.33175C8.12612 1.11469 7.78267 0.999808 7.43233 1H2.94262C2.44262 1 1.9631 1.23413 1.60955 1.65087C1.256 2.06762 1.05737 2.63285 1.05737 3.22222V18.7778C1.05737 19.3671 1.256 19.9324 1.60955 20.3491C1.9631 20.7659 2.44262 21 2.94262 21H18.0246C18.5246 21 19.0041 20.7659 19.3577 20.3491C19.7112 19.9324 19.9098 19.3671 19.9098 18.7778Z" stroke="black" stroke-width="2" stroke-linecap="round" stroke-linejoin="round"/>
</svg>
