<svg width="30" height="30" viewBox="0 0 30 30" fill="none" xmlns="http://www.w3.org/2000/svg">
<path d="M19.375 20C21.1009 20 22.5 18.6009 22.5 16.875C22.5 15.1491 21.1009 13.75 19.375 13.75C17.6491 13.75 16.25 15.1491 16.25 16.875C16.25 18.6009 17.6491 20 19.375 20Z" fill="black"/>
<path d="M15 16.875C15 15.8563 15.495 14.96 16.25 14.39C15.7123 13.9765 15.0533 13.7516 14.375 13.75C13.5462 13.75 12.7513 14.0792 12.1653 14.6653C11.5792 15.2513 11.25 16.0462 11.25 16.875C11.25 17.7038 11.5792 18.4987 12.1653 19.0847C12.7513 19.6708 13.5462 20 14.375 20C15.0533 19.9984 15.7123 19.7735 16.25 19.36C15.8629 19.0714 15.5484 18.6965 15.3314 18.2652C15.1144 17.8338 15.001 17.3578 15 16.875Z" fill="black"/>
<path d="M25 5H5C3.62125 5 2.5 6.12125 2.5 7.5V22.5C2.5 23.8787 3.62125 25 5 25H25C26.3787 25 27.5 23.8787 27.5 22.5V7.5C27.5 6.12125 26.3787 5 25 5ZM5 22.5V7.5H25L25.0025 22.5H5Z" fill="black"/>
</svg>
