<svg width="25" height="25" viewBox="0 0 25 25" fill="none" xmlns="http://www.w3.org/2000/svg">
<path d="M20.5078 4.67892H16.6168V3.54646C16.6168 2.6199 16.3345 1.83918 15.77 1.20432C15.2054 0.569449 14.5111 0.252016 13.6871 0.252016H9.75037C8.92639 0.252016 8.23212 0.569449 7.66754 1.20432C7.10297 1.83918 6.82068 2.6199 6.82068 3.54646V4.67892H2.92969C2.10571 4.67892 1.41144 4.98777 0.846863 5.60548C0.282288 6.22319 0 7.01248 0 7.97336V12.3488C0 13.0694 0.320435 13.4298 0.961304 13.4298V22.2321C0.961304 22.8155 1.15967 23.3303 1.5564 23.7764C1.95312 24.2225 2.41089 24.4456 2.92969 24.4456H20.5078C21.0266 24.4456 21.4844 24.2225 21.8811 23.7764C22.2778 23.3303 22.4762 22.8155 22.4762 22.2321V13.4298C23.1171 13.4298 23.4375 13.0694 23.4375 12.3488V7.97336C23.4375 7.01248 23.1552 6.22319 22.5906 5.60548C22.0261 4.98777 21.3318 4.67892 20.5078 4.67892ZM8.78906 3.54646C8.78906 3.2376 8.88062 2.98022 9.06372 2.77432C9.24683 2.56842 9.47571 2.46547 9.75037 2.46547H13.6871C13.9618 2.46547 14.1907 2.56842 14.3738 2.77432C14.5569 2.98022 14.6484 3.2376 14.6484 3.54646V4.67892H8.78906V3.54646ZM2.92969 22.2321V13.4298H8.78906V16.7242C8.78906 17.3419 8.9798 17.8653 9.36127 18.2942C9.74274 18.7232 10.2081 18.9377 10.7574 18.9377H12.6801C13.2294 18.9377 13.6948 18.7232 14.0762 18.2942C14.4577 17.8653 14.6484 17.3419 14.6484 16.7242V13.4298H20.5078V22.2321H2.92969ZM10.7574 16.7242V13.4298H12.6801V16.7242H10.7574ZM21.4691 11.2678H1.96838V7.97336C1.96838 7.21839 2.28882 6.8409 2.92969 6.8409H20.5078C21.1487 6.8409 21.4691 7.21839 21.4691 7.97336V11.2678Z" fill="black"/>
</svg>
