<svg width="32" height="33" viewBox="0 0 32 33" fill="none" xmlns="http://www.w3.org/2000/svg">
<g filter="url(#filter0_d)">
<path d="M25.6401 13.3249C25.4479 13.0968 25.3418 12.8036 25.3418 12.5C25.3418 12.1964 25.4479 11.9032 25.6401 11.6751L27.1753 9.87536C27.3445 9.67872 27.4495 9.4313 27.4754 9.16859C27.5012 8.90588 27.4466 8.64138 27.3192 8.41306L24.9205 4.08864C24.7945 3.86058 24.6026 3.6798 24.3722 3.57207C24.1417 3.46435 23.8845 3.43518 23.6373 3.48873L21.3825 3.96366C21.0956 4.02544 20.7969 3.97565 20.5428 3.82368C20.2887 3.67171 20.0968 3.42809 20.0033 3.13877L19.2717 0.851584C19.1912 0.603342 19.0379 0.387728 18.8335 0.23522C18.629 0.0827124 18.3837 0.00102336 18.1323 0.00169972H13.335C13.0734 -0.0125259 12.8146 0.0628494 12.5981 0.216313C12.3815 0.369777 12.2191 0.592893 12.1356 0.851584L11.464 3.13877C11.3705 3.42809 11.1785 3.67171 10.9244 3.82368C10.6703 3.97565 10.3717 4.02544 10.0848 3.96366L7.77005 3.48873C7.53564 3.45421 7.29667 3.49275 7.08325 3.59951C6.86982 3.70627 6.69149 3.87646 6.57072 4.08864L4.17205 8.41306C4.04151 8.63884 3.98282 8.90185 4.00436 9.16448C4.0259 9.42712 4.12657 9.67593 4.29198 9.87536L5.81514 11.6751C6.00741 11.9032 6.11345 12.1964 6.11345 12.5C6.11345 12.8036 6.00741 13.0968 5.81514 13.3249L4.29198 15.1246C4.12657 15.3241 4.0259 15.5729 4.00436 15.8355C3.98282 16.0982 4.04151 16.3612 4.17205 16.5869L6.57072 20.9114C6.69676 21.1394 6.88868 21.3202 7.11912 21.4279C7.34955 21.5357 7.60673 21.5648 7.85401 21.5113L10.1088 21.0363C10.3957 20.9746 10.6943 21.0244 10.9484 21.1763C11.2025 21.3283 11.3944 21.5719 11.488 21.8612L12.2196 24.1484C12.303 24.4071 12.4654 24.6302 12.682 24.7837C12.8986 24.9371 13.1574 25.0125 13.4189 24.9983H18.2163C18.4677 24.999 18.713 24.9173 18.9174 24.7648C19.1219 24.6123 19.2752 24.3967 19.3556 24.1484L20.0872 21.8612C20.1808 21.5719 20.3727 21.3283 20.6268 21.1763C20.8809 21.0244 21.1796 20.9746 21.4665 21.0363L23.7212 21.5113C23.9685 21.5648 24.2257 21.5357 24.4561 21.4279C24.6865 21.3202 24.8785 21.1394 25.0045 20.9114L27.4032 16.5869C27.5305 16.3586 27.5852 16.0941 27.5593 15.8314C27.5335 15.5687 27.4284 15.3213 27.2593 15.1246L25.6401 13.3249ZM23.8531 14.9997L24.8126 16.1245L23.2775 18.8991L21.8622 18.5992C20.9985 18.4152 20.0999 18.5681 19.3372 19.0289C18.5744 19.4897 18.0006 20.2262 17.7245 21.0988L17.2688 22.4986H14.1985L13.7667 21.0738C13.4907 20.2013 12.9169 19.4647 12.1541 19.0039C11.3914 18.5431 10.4928 18.3902 9.62902 18.5742L8.21381 18.8741L6.65467 16.112L7.61414 14.9872C8.20416 14.2997 8.53035 13.4098 8.53035 12.4875C8.53035 11.5652 8.20416 10.6753 7.61414 9.98784L6.65467 8.86299L8.18982 6.11337L9.60503 6.41333C10.4688 6.59733 11.3674 6.44442 12.1301 5.98363C12.8929 5.52284 13.4667 4.78625 13.7427 3.91367L14.1985 2.50136H17.2688L17.7245 3.92617C18.0006 4.79875 18.5744 5.53534 19.3372 5.99613C20.0999 6.45692 20.9985 6.60983 21.8622 6.42583L23.2775 6.12587L24.8126 8.90049L23.8531 10.0253C23.2697 10.7112 22.9476 11.596 22.9476 12.5125C22.9476 13.429 23.2697 14.3138 23.8531 14.9997ZM15.7336 7.50068C14.7848 7.50068 13.8573 7.79389 13.0684 8.34322C12.2795 8.89255 11.6646 9.67334 11.3015 10.5868C10.9384 11.5003 10.8434 12.5055 11.0285 13.4753C11.2136 14.4451 11.6705 15.3359 12.3414 16.0351C13.0123 16.7342 13.8671 17.2104 14.7977 17.4033C15.7283 17.5962 16.6929 17.4972 17.5695 17.1188C18.4461 16.7404 19.1953 16.0996 19.7225 15.2775C20.2496 14.4553 20.531 13.4888 20.531 12.5C20.531 11.1741 20.0255 9.9025 19.1259 8.96495C18.2262 8.02739 17.006 7.50068 15.7336 7.50068ZM15.7336 14.9997C15.2592 14.9997 14.7955 14.8531 14.401 14.5784C14.0065 14.3037 13.6991 13.9133 13.5176 13.4566C13.336 12.9998 13.2885 12.4972 13.3811 12.0123C13.4736 11.5275 13.7021 11.0821 14.0375 10.7325C14.373 10.3829 14.8004 10.1448 15.2657 10.0484C15.731 9.95192 16.2133 10.0014 16.6516 10.1906C17.0899 10.3798 17.4645 10.7002 17.7281 11.1113C17.9916 11.5223 18.1323 12.0056 18.1323 12.5C18.1323 13.163 17.8796 13.7987 17.4298 14.2675C16.9799 14.7363 16.3698 14.9997 15.7336 14.9997Z" fill="black"/>
</g>
<defs>
<filter id="filter0_d" x="0" y="0" width="31.5656" height="33" filterUnits="userSpaceOnUse" color-interpolation-filters="sRGB">
<feFlood flood-opacity="0" result="BackgroundImageFix"/>
<feColorMatrix in="SourceAlpha" type="matrix" values="0 0 0 0 0 0 0 0 0 0 0 0 0 0 0 0 0 0 127 0"/>
<feOffset dy="4"/>
<feGaussianBlur stdDeviation="2"/>
<feColorMatrix type="matrix" values="0 0 0 0 0 0 0 0 0 0 0 0 0 0 0 0 0 0 0.25 0"/>
<feBlend mode="normal" in2="BackgroundImageFix" result="effect1_dropShadow"/>
<feBlend mode="normal" in="SourceGraphic" in2="effect1_dropShadow" result="shape"/>
</filter>
</defs>
</svg>
